<svg xmlns="http://www.w3.org/2000/svg" xmlns:xlink="http://www.w3.org/1999/xlink" version="1.1" id="Capa_1" x="0px" y="0px" viewBox="0 0 480 480" style="enable-background:new 0 0 480 480;" xml:space="preserve" width="512" height="512" class=""><g><g>
	<g>
		<path d="M120,0H24C10.745,0,0,10.745,0,24v48c0,13.255,10.745,24,24,24h40v16H32c-4.418,0-8,3.582-8,8s3.582,8,8,8h80    c4.418,0,8-3.582,8-8s-3.582-8-8-8H80V96h40c13.255,0,24-10.745,24-24V24C144,10.745,133.255,0,120,0z M128,72    c0,4.418-3.582,8-8,8H24c-4.418,0-8-3.582-8-8V24c0-4.418,3.582-8,8-8h96c4.418,0,8,3.582,8,8V72z" data-original="#000000" class="active-path" style="fill:#FCFCFC" data-old_color="#FBF8F8"></path>
	</g>
</g><g>
	<g>
		<path d="M288,0h-96c-13.255,0-24,10.745-24,24v48c0,13.255,10.745,24,24,24h40v16h-32c-4.418,0-8,3.582-8,8s3.582,8,8,8h80    c4.418,0,8-3.582,8-8s-3.582-8-8-8h-32V96h40c13.255,0,24-10.745,24-24V24C312,10.745,301.255,0,288,0z M296,72    c0,4.418-3.582,8-8,8h-96c-4.418,0-8-3.582-8-8V24c0-4.418,3.582-8,8-8h96c4.418,0,8,3.582,8,8V72z" data-original="#000000" class="active-path" style="fill:#FCFCFC" data-old_color="#FBF8F8"></path>
	</g>
</g><g>
	<g>
		<path d="M456,0h-96c-13.255,0-24,10.745-24,24v48c0,13.255,10.745,24,24,24h40v16h-32c-4.418,0-8,3.582-8,8s3.582,8,8,8h80    c4.418,0,8-3.582,8-8s-3.582-8-8-8h-32V96h40c13.255,0,24-10.745,24-24V24C480,10.745,469.255,0,456,0z M464,72    c0,4.418-3.582,8-8,8h-96c-4.418,0-8-3.582-8-8V24c0-4.418,3.582-8,8-8h96c4.418,0,8,3.582,8,8V72z" data-original="#000000" class="active-path" style="fill:#FCFCFC" data-old_color="#FBF8F8"></path>
	</g>
</g><g>
	<g>
		<path d="M120,352H24c-13.255,0-24,10.745-24,24v48c0,13.255,10.745,24,24,24h40v16H32c-4.418,0-8,3.582-8,8s3.582,8,8,8h80    c4.418,0,8-3.582,8-8s-3.582-8-8-8H80v-16h40c13.255,0,24-10.745,24-24v-48C144,362.745,133.255,352,120,352z M128,424    c0,4.418-3.582,8-8,8H24c-4.418,0-8-3.582-8-8v-48c0-4.418,3.582-8,8-8h96c4.418,0,8,3.582,8,8V424z" data-original="#000000" class="active-path" style="fill:#FCFCFC" data-old_color="#FBF8F8"></path>
	</g>
</g><g>
	<g>
		<path d="M288,352h-96c-13.255,0-24,10.745-24,24v48c0,13.255,10.745,24,24,24h40v16h-32c-4.418,0-8,3.582-8,8s3.582,8,8,8h80    c4.418,0,8-3.582,8-8s-3.582-8-8-8h-32v-16h40c13.255,0,24-10.745,24-24v-48C312,362.745,301.255,352,288,352z M296,424    c0,4.418-3.582,8-8,8h-96c-4.418,0-8-3.582-8-8v-48c0-4.418,3.582-8,8-8h96c4.418,0,8,3.582,8,8V424z" data-original="#000000" class="active-path" style="fill:#FCFCFC" data-old_color="#FBF8F8"></path>
	</g>
</g><g>
	<g>
		<path d="M456,352h-96c-13.255,0-24,10.745-24,24v48c0,13.255,10.745,24,24,24h40v16h-32c-4.418,0-8,3.582-8,8s3.582,8,8,8h80    c4.418,0,8-3.582,8-8s-3.582-8-8-8h-32v-16h40c13.255,0,24-10.745,24-24v-48C480,362.745,469.255,352,456,352z M464,424    c0,4.418-3.582,8-8,8h-96c-4.418,0-8-3.582-8-8v-48c0-4.418,3.582-8,8-8h96c4.418,0,8,3.582,8,8V424z" data-original="#000000" class="active-path" style="fill:#FCFCFC" data-old_color="#FBF8F8"></path>
	</g>
</g><g>
	<g>
		<path d="M384,184c13.255,0,24-10.745,24-24v-8c0-4.418-3.582-8-8-8s-8,3.582-8,8v8c0,4.418-3.582,8-8,8H96c-4.418,0-8-3.582-8-8    v-8c0-4.418-3.582-8-8-8s-8,3.582-8,8v8c0,13.255,10.745,24,24,24h136v16H96c-13.255,0-24,10.745-24,24v32    c0,13.255,10.745,24,24,24h136v16H96c-13.255,0-24,10.745-24,24v8c0,4.418,3.582,8,8,8s8-3.582,8-8v-8c0-4.418,3.582-8,8-8h288    c4.418,0,8,3.582,8,8v8c0,4.418,3.582,8,8,8s8-3.582,8-8v-8c0-13.255-10.745-24-24-24H248v-16h136c13.255,0,24-10.745,24-24v-32    c0-13.255-10.745-24-24-24H248v-16H384z M384,216c4.418,0,8,3.582,8,8v32c0,4.418-3.582,8-8,8H96c-4.418,0-8-3.582-8-8v-32    c0-4.418,3.582-8,8-8H384z" data-original="#000000" class="active-path" style="fill:#FCFCFC" data-old_color="#FBF8F8"></path>
	</g>
</g><g>
	<g>
		<circle cx="360" cy="240" r="16" data-original="#000000" class="active-path" style="fill:#FCFCFC" data-old_color="#FBF8F8"></circle>
	</g>
</g><g>
	<g>
		<path d="M272,232H112c-4.418,0-8,3.582-8,8s3.582,8,8,8h160c4.418,0,8-3.582,8-8S276.418,232,272,232z" data-original="#000000" class="active-path" style="fill:#FCFCFC" data-old_color="#FBF8F8"></path>
	</g>
</g><g>
	<g>
		<path d="M324,232h-22.4c-4.418,0-8,3.582-8,8s3.582,8,8,8H324c4.418,0,8-3.582,8-8S328.418,232,324,232z" data-original="#000000" class="active-path" style="fill:#FCFCFC" data-old_color="#FBF8F8"></path>
	</g>
</g></g> </svg>